PathFileType	4	(X/Y/Z)	6_coords_data.trc
DataRate	CameraRate	NumFrames	NumMarkers	Units	OrigDataRate	OrigDataStartFrame	OrigNumFrames
30.0	30.0	5	21	m	30.0	39	77
Frame#	Time	THUMB_TIP	THUMB_IP	THUMB_MCP	THUMB_CMC	INDEX_TIP	INDEX_DIP	INDEX_PIP	INDEX_MCP	MIDDLE_TIP	MIDDLE_DIP	MIDDLE_PIP	MIDDLE_MCP	RING_TIP	RING_DIP	RING_PIP	RING_MCP	PINKY_TIP	PINKY_DIP	PINKY_PIP	PINKY_MCP	WRIST
X1	Y1	Z1	X2	Y2	Z2	X3	Y3	Z3	X4	Y4	Z4	X5	Y5	Z5	X6	Y6	Z6	X7	Y7	Z7	X8	Y8	Z8	X9	Y9	Z9	X10	Y10	Z10	X11	Y11	Z11	X12	Y12	Z12	X13	Y13	Z13	X14	Y14	Z14	X15	Y15	Z15	X16	Y16	Z16	X17	Y17	Z17	X18	Y18	Z18	X19	Y19	Z19	X20	Y20	Z20	X21	Y21	Z21
37	1.2666666666666608	0.4751078331768308	-0.03991387360542198	-0.17126623591882906	0.4847504452721515	-0.03613837078772775	-0.15075366390913808	0.4785930110119848	-0.03105317175385769	-0.1206696689264625	0.47701477043802043	-0.025990111600303734	-0.07637785728399082	0.49888181167341605	-0.011184339926310516	-0.10021720932243638	0.5164370934816134	-0.01553247884722142	-0.10116892806199984	0.5349916170017672	-0.0014603960952415118	-0.11064077988524373	0.4990391690345868	0.021095404349456337	-0.11414698088720471	0.49806296759026225	-0.01767854190257645	-0.08620938242262088	0.5159528178492211	-0.015063841892400398	-0.08515268872584086	0.537482041448536	0.003503789995133677	-0.09156713549074091	0.5041020336139468	0.03311662765047241	-0.09380383930692354	0.5001582711023544	-0.0072648136281421305	-0.07237849348415398	0.5180413992620787	-0.008305696426962328	-0.07035110841416908	0.5390025476056257	0.004825684366594918	-0.07324542656779609	0.5129591594860051	0.03572117557396204	-0.0718556811571871	0.5072641455519311	-0.009873397792207528	-0.05378228379130956	0.5239805688622737	-0.01311425664811039	-0.0555310049198921	0.5407511598925274	-0.00048274166762396487	-0.05559522947681461	0.5173385023246231	0.02614677704411117	-0.048992226388112736	0.4622830810018609	-0.023011742144276925	-0.051989820119430985
38	1.299999999999994	0.4751568240133992	-0.040060528488892966	-0.17122812245191332	0.4848162023259882	-0.03624786699485405	-0.15073031713168059	0.4786405568064902	-0.031095070904445965	-0.12066156100728831	0.47701744099992016	-0.025998926149970014	-0.07637516576315168	0.49892199705529816	-0.01116182375523389	-0.10018346532148037	0.5164635421303252	-0.015567272432425283	-0.10112485702179685	0.5350411619815433	-0.0015178301401884697	-0.11058503909936498	0.49911627758215826	0.021078397362734536	-0.11411339247268076	0.4980519169429801	-0.017778546402211215	-0.08612497733397206	0.515935093172496	-0.01511000914698446	-0.08509012620383627	0.5375012289638407	0.0034152554624303777	-0.09150307468175584	0.5041783951780239	0.03309072125056267	-0.09376214522961979	0.5001847313854585	-0.007422803667546107	-0.07227491892138349	0.5180806421166251	-0.008342610693542474	-0.0703025259237669	0.5390479760168672	0.004780112998857611	-0.07319129919432343	0.5130171786230902	0.035686582254331634	-0.07180978581958575	0.5072718635367374	-0.009881215636125873	-0.05376146418294264	0.5239835093206415	-0.013163581298547666	-0.05547813854095973	0.5407488655891378	-0.0005250597161490234	-0.055529328399675726	0.5173541649824971	0.026126817806547686	-0.04895294192678579	0.462283081001861	-0.023011742144276925	-0.051989820119430985
39	1.3333333333333275	0.4751488329135971	-0.04014522570918366	-0.17121405232992318	0.484824466587085	-0.036323004505817824	-0.15072569617114348	0.47864172350264844	-0.031140791898491504	-0.12066345473035406	0.477004560424375	-0.026011132148147098	-0.07638144610494457	0.4990101802916047	-0.011143160070013702	-0.10018445202435927	0.5165333235107703	-0.01562467512269794	-0.10110937069817666	0.5350944200410497	-0.0015444803705546573	-0.11055625612859094	0.4991782589277215	0.021065422015789315	-0.11408581402745763	0.4980572582043682	-0.017845704568121068	-0.08610558030302667	0.5159332808476296	-0.015132649395828479	-0.08506291732310284	0.5375272613923046	0.0033616040522134183	-0.09147167255604693	0.5042364910060279	0.03307330317660484	-0.0937272131187179	0.5002006396049183	-0.007543293987673061	-0.07219556494858159	0.5181068908469046	-0.00837300589983292	-0.07027782028317758	0.5390851124886405	0.004734140238202511	-0.07315825703242135	0.5130707832536849	0.03565410754629805	-0.07176860595332296	0.5072532829859486	-0.009932984405388812	-0.053747073549271884	0.5239666615491435	-0.01321929793741028	-0.05543914930779725	0.5407347029262983	-0.0005842828595278293	-0.055473809886424974	0.51737448211577	0.026101517050204248	-0.04891243671755918	0.462283081001861	-0.023011742144276925	-0.051989820119430985
40	1.3666666666666607	0.47519011741033756	-0.040234462428139994	-0.1711962497246194	0.48486323715200985	-0.03639491847598253	-0.15070994559960157	0.478640667512246	-0.03118722221235659	-0.1206603278532124	0.4770005722731755	-0.026014660999822525	-0.07638341854249647	0.49904116622564076	-0.011106536040886739	-0.10020266239503162	0.5165520196981694	-0.01564038714936633	-0.1011049953655973	0.5351208271497284	-0.0015736435743095578	-0.11055676493645183	0.4992126317875244	0.021050522786799974	-0.11407595465776965	0.49801635041405645	-0.017911489944687276	-0.08609977492307797	0.5158837140268542	-0.015148241883635838	-0.08504063485624908	0.5375220345315153	0.0032951413623292236	-0.09144643302509792	0.5042741669717706	0.03305381262443152	-0.0937155095870072	0.500217361842377	-0.0076126939364654644	-0.07215585341649533	0.5181290252908254	-0.008383626377152509	-0.07026429964210534	0.5391142850800976	0.004712507868003701	-0.07314355621448737	0.5131004073872343	0.03563291973626004	-0.0717553446750791	0.5072846260324745	-0.009888079833837549	-0.053762303977761994	0.5239900511615392	-0.013231655785925	-0.05542039658972203	0.5407513043572285	-0.0005876314350815592	-0.055452931575019127	0.5173824113013712	0.026091561499497762	-0.04889557290682006	0.4622830810018609	-0.023011742144276925	-0.051989820119430985
41	1.3999999999999937	0.4752471886620592	-0.04027309377869215	-0.17118801069701495	0.48490721315469887	-0.036431900722731614	-0.15069583749092375	0.47865501078297434	-0.03120719514668624	-0.12065532456010575	0.4770045206908913	-0.025994717708438198	-0.07638348292897762	0.4991036911445441	-0.011047204890364037	-0.10022894257288756	0.5165924061793663	-0.01567468622258339	-0.10108408171404998	0.5351520978318538	-0.0015883532731949535	-0.11052457443443062	0.49924770360684456	0.02103878040315188	-0.11406341477101839	0.49801850605444675	-0.017960078981542504	-0.08610113381115603	0.5158803484367446	-0.015173406017213953	-0.08501070247455988	0.5375407756311543	0.0032442158801115895	-0.09141590718657511	0.5043168059286792	0.03302784457237862	-0.09370746127282092	0.5002162733280537	-0.007675440340951134	-0.07210414010455934	0.5181337285679445	-0.008400911326649885	-0.07024982363334348	0.5391319106123749	0.004675075908901816	-0.07312643407701808	0.5131301167855212	0.03560650075528393	-0.07175730707107081	0.5072838948227681	-0.009893675690619608	-0.05375355376862867	0.5239867417787764	-0.013248460400246298	-0.05541497578492122	0.5407480848699342	-0.0006045493108000066	-0.05544512777773153	0.5173872901208527	0.026086926567208346	-0.0489089335375798	0.4622830810018608	-0.023011742144276925	-0.051989820119430985
